<svg width="900" height="700" viewBox="0 0 900 700" fill="none" xmlns="http://www.w3.org/2000/svg">
  <defs>
    <linearGradient id="blueGradient" x1="0" y1="0" x2="1" y2="1">
      <stop offset="0%" stop-color="#1F5EFF" />
      <stop offset="100%" stop-color="#4BA1FF" />
    </linearGradient>
    <linearGradient id="greenGradient" x1="0" y1="0" x2="1" y2="1">
      <stop offset="0%" stop-color="#A5D40A" />
      <stop offset="100%" stop-color="#DAED4D" />
    </linearGradient>
  </defs>
  <rect x="28" y="40" width="844" height="620" rx="42" fill="url(#blueGradient)" opacity="0.1" />
  <rect x="48" y="56" width="820" height="590" rx="36" fill="#071A3D" stroke="rgba(255,255,255,0.08)" stroke-width="2" />
  <rect x="104" y="140" width="160" height="360" rx="24" fill="url(#blueGradient)" opacity="0.95" />
  <rect x="284" y="200" width="120" height="280" rx="24" fill="#0B2145" stroke="rgba(255,255,255,0.08)" stroke-width="2" />
  <rect x="448" y="176" width="104" height="304" rx="24" fill="url(#greenGradient)" opacity="0.92" />
  <rect x="588" y="248" width="80" height="232" rx="20" fill="#0B2145" stroke="rgba(255,255,255,0.08)" stroke-width="2" />
  <circle cx="330" cy="128" r="28" fill="rgba(31, 94, 255, 0.18)" />
  <circle cx="618" cy="118" r="24" fill="rgba(165, 212, 10, 0.18)" />
  <path d="M128 456C184 400 256 372 336 372C416 372 496 400 552 456" stroke="rgba(255,255,255,0.22)" stroke-width="8" stroke-linecap="round" />
  <rect x="132" y="80" width="600" height="40" rx="20" fill="rgba(255,255,255,0.08)" />
  <rect x="152" y="92" width="120" height="12" rx="6" fill="rgba(255,255,255,0.25)" />
  <rect x="172" y="136" width="320" height="20" rx="10" fill="rgba(255,255,255,0.08)" />
  <rect x="172" y="176" width="280" height="20" rx="10" fill="rgba(255,255,255,0.06)" />
  <rect x="172" y="216" width="260" height="20" rx="10" fill="rgba(255,255,255,0.06)" />
  <circle cx="776" cy="508" r="68" fill="rgba(31,94,255,0.2)" />
  <circle cx="786" cy="520" r="40" fill="rgba(165,212,10,0.18)" />
  <path d="M116 548C178 504 256 478 330 478C404 478 496 510 552 566C608 622 708 640 772 598" stroke="rgba(165,212,10,0.24)" stroke-width="8" stroke-linecap="round" />
</svg>
